<!DOCTYPE svg PUBLIC "-//W3C//DTD SVG 1.1//EN" "http://www.w3.org/Graphics/SVG/1.1/DTD/svg11.dtd">
<!-- Uploaded to: SVG Repo, www.svgrepo.com, Transformed by: SVG Repo Mixer Tools -->
<svg width="800px" height="800px" viewBox="0 0 48 48" fill="none" xmlns="http://www.w3.org/2000/svg">
<g id="SVGRepo_bgCarrier" stroke-width="0"/>
<g id="SVGRepo_tracerCarrier" stroke-linecap="round" stroke-linejoin="round"/>
<g id="SVGRepo_iconCarrier"> <g id="star"> <g id="star_2"> <path id="Combined Shape" fill-rule="evenodd" clip-rule="evenodd" d="M22.6988 4.8956L18.2481 17.9614H5.4002C4.03895 17.9614 3.48002 19.7095 4.58648 20.5008L15.1262 28.006C15.576 28.3263 16.2004 28.2213 16.5208 27.7714C16.8411 27.3216 16.7361 26.6972 16.2863 26.3768L7.27697 19.9614H18.5362C19.2198 19.9614 19.8313 19.5251 20.0501 18.874L23.9547 7.41137L26.6334 15.2893C26.8112 15.8122 27.3793 16.092 27.9021 15.9142C28.425 15.7364 28.7048 15.1683 28.527 14.6455L25.213 4.89946C24.7999 3.70066 23.1105 3.70066 22.6988 4.8956ZM12.1763 43.6127C11.026 44.6869 9.61068 43.3261 10.0353 42.0652L13.9053 30.7092C14.0834 30.1865 14.6516 29.9071 15.1744 30.0853C15.6971 30.2634 15.9765 30.8316 15.7983 31.3544L12.6107 40.7082L23.0715 32.3427C23.5767 31.8712 24.3414 31.8712 24.7805 32.2929L35.3001 40.7115L31.0362 28.1991C30.8052 27.5277 31.0467 26.7849 31.6238 26.3772L40.633 19.9618H28.9558C28.4035 19.9618 27.9558 19.5141 27.9558 18.9618C27.9558 18.4095 28.4035 17.9618 28.9558 17.9618H42.5098C43.8711 17.9618 44.4337 19.7122 43.3219 20.5024L33.0249 27.8347L37.8755 42.0687C38.2987 43.3253 36.8889 44.6839 35.7911 43.6627L23.9575 34.1914L12.1763 43.6127ZM10.8691 42.1009L10.9749 42.0163C10.9393 42.0401 10.9039 42.0681 10.8691 42.1009ZM37.0956 42.1484C37.0575 42.1131 37.0191 42.0825 36.9807 42.0564L37.0956 42.1484Z" fill="#d3cfcf"/> </g> </g> </g>
</svg>